<svg id="Layer_1" data-name="Layer 1" xmlns="http://www.w3.org/2000/svg" viewBox="0 0 458.56 297.03"><defs><style>.cls-1{fill:#fff;}</style></defs><path class="cls-1" d="M21.29,76.84H89.7l55.74,90.45,55.73-90.45h68.42V310.46H205.18V176.3l-59.74,91.44H144.1L84.7,177v133.5H21.29Z" transform="translate(-21.29 -13.43)"/><path class="cls-1" d="M207.52,76.84H327.33c29.37,0,50.06,7.35,63.74,21,9.35,9.34,15,21.69,15,37.71v.67c0,27-15.35,43.05-36,52.06,28.36,9.35,46.39,25.37,46.39,57.07v.67c0,40.05-32.71,64.41-88.44,64.41H207.52ZM311.31,170C331,170,342,163.28,342,149.6v-.67c0-12.68-10-20-29.37-20H270.59V170Zm9.34,88.44c19.69,0,31-7.68,31-21.36v-.67c0-12.68-10-21-31.7-21h-49.4V258.4Z" transform="translate(-21.29 -13.43)"/><rect class="cls-1" x="395.15" width="63.41" height="63.41"/></svg>